<?xml version="1.0" standalone="no"?><!DOCTYPE svg PUBLIC "-//W3C//DTD SVG 1.1//EN" "http://www.w3.org/Graphics/SVG/1.1/DTD/svg11.dtd"><svg t="1565160594879" class="icon" viewBox="0 0 1024 1024" version="1.1" xmlns="http://www.w3.org/2000/svg" p-id="3416" xmlns:xlink="http://www.w3.org/1999/xlink" width="256" height="256"><defs><style type="text/css"></style></defs><path d="M771.99104 512.2624c0 4.33792-3.67488 19.81056-18.75712 19.81056-15.0528 0-39.42784-28.95616-73.12-28.95616-44.10112 0-49.36448 52.49792-49.36448 178.57408 0 126.04928 18.72896 150.30784 52.71552 150.30784C700.31104 832 832 817.52192 832 538.9248c0-244.06016-166.29248-346.40128-319.7376-346.40128-153.41568 0-319.7376 102.3424-319.7376 346.40128C192.5248 817.52192 324.24064 832 341.088 832c33.98784 0 52.7168-24.25984 52.7168-150.30784 0-126.07616-5.23392-178.57408-49.33504-178.57408-33.72288 0-58.0672 28.95616-73.15072 28.95616-15.08352 0-18.75712-15.47264-18.75712-19.81056 0-148.89984 99.8464-266.90944 259.11424-266.90944C670.90944 245.35168 771.99104 363.36256 771.99104 512.2624L771.99104 512.2624z" fill="#ffffff" p-id="3417"></path></svg>