<?xml version="1.0" standalone="no"?><!DOCTYPE svg PUBLIC "-//W3C//DTD SVG 1.1//EN" "http://www.w3.org/Graphics/SVG/1.1/DTD/svg11.dtd"><svg t="1565160852957" class="icon" viewBox="0 0 1024 1024" version="1.1" xmlns="http://www.w3.org/2000/svg" p-id="10071" xmlns:xlink="http://www.w3.org/1999/xlink" width="256" height="256"><defs><style type="text/css"></style></defs><path d="M811.21040001 989.72190293L128.75085121 989.72190293c-25.12803413 0-45.49701227-20.36897813-45.49701226-45.49701226L83.25383895 784.9831648l-90.99511574 0L-7.74127679 602.99402453l90.99511574 0L83.25383895 421.00488427l-90.99511574 0L-7.74127679 239.015744l90.99511574 0L83.25383895 79.77510933c0-25.12803413 20.36897813-45.49701227 45.49701226-45.49701226l682.45954987 0c25.12803413 0 45.49701227 20.36897813 45.49701227 45.49701226l0 864.44869014C856.70741228 969.3529248 836.33843415 989.72190293 811.21040001 989.72190293zM811.21040001 125.2721216c0-25.12803413-20.36897813-45.49701227-45.49701226-45.49701227l-591.46552534 0c-25.12803413 0-45.49701227 20.36897813-45.49701226 45.49701227l0 773.4546656c0 25.12803413 20.36897813 45.49701227 45.49701226 45.49701227l591.46552534 0c25.12803413 0 45.49701227-20.36897813 45.49701226-45.49701227L811.21040001 125.2721216zM219.74596695 716.73764693L720.21637548 716.73764693l0 45.49701227L219.74596695 762.2346592 219.74596695 716.73764693zM219.74596695 489.2514944L720.21637548 489.2514944l0 45.49701227L219.74596695 534.7485056 219.74596695 489.2514944zM219.74596695 261.7642496L538.22614401 261.7642496l0 45.49701227L219.74596695 307.26126187 219.74596695 261.7642496z" p-id="10072" fill="#ffffff"></path></svg>