<?xml version="1.0" standalone="no"?><!DOCTYPE svg PUBLIC "-//W3C//DTD SVG 1.1//EN" "http://www.w3.org/Graphics/SVG/1.1/DTD/svg11.dtd"><svg t="1565588455521" class="icon" viewBox="0 0 1024 1024" version="1.1" xmlns="http://www.w3.org/2000/svg" p-id="11829" xmlns:xlink="http://www.w3.org/1999/xlink" width="256" height="256"><defs><style type="text/css"></style></defs><path d="M950.080453 891.575991l-284.532335-165.785837c-8.730848-5.085832-19.897166-2.067079-24.933879 6.741541l-18.253736 31.904641c-5.040806 8.81169-2.049682 20.076244 6.680143 25.164123l175.044712 101.990882L80.895425 891.591341c-9.268084 0-16.783245 7.575536-16.783245 16.920368l0 33.840736c0 9.343809 7.515161 16.920368 16.783245 16.920368l861.561397 0c9.268084 0 16.783245-7.575536 16.783245-16.920368l0-33.840736c0-0.283456-0.028653-0.560772-0.041956-0.841158C959.240067 901.260561 955.97572 895.010207 950.080453 891.575991z" p-id="11830"></path><path d="M950.080453 561.668213 665.548118 395.883399c-8.730848-5.087878-19.897166-2.067079-24.933879 6.741541l-18.253736 31.904641c-5.040806 8.809643-2.049682 20.076244 6.680143 25.164123l175.046758 101.990882L80.895425 561.684586c-9.268084 0-16.783245 7.574512-16.783245 16.920368l0 33.840736c0 9.343809 7.515161 16.920368 16.783245 16.920368l861.561397 0c9.268084 0 16.783245-7.575536 16.783245-16.920368l0-33.840736c0-0.283456-0.028653-0.560772-0.041956-0.841158C959.240067 571.353806 955.97572 565.102429 950.080453 561.668213z" p-id="11831"></path><path d="M959.197088 247.854994c0.040932-6.408967-3.222391-12.659321-9.116635-16.093537L665.548118 65.976644c-8.730848-5.086855-19.897166-2.069125-24.933879 6.741541l-18.253736 31.904641c-5.040806 8.809643-2.049682 20.076244 6.680143 25.163099l175.043688 101.988836L80.895425 231.774761c-9.268084 0-16.783245 7.575536-16.783245 16.920368l0 33.840736c0 9.345856 7.515161 16.920368 16.783245 16.920368l861.561397 0c9.268084 0 16.783245-7.574512 16.783245-16.920368l0-33.840736C959.240067 248.412696 959.211415 248.13538 959.197088 247.854994z" p-id="11832"></path></svg>