<?xml version="1.0" standalone="no"?><!DOCTYPE svg PUBLIC "-//W3C//DTD SVG 1.1//EN" "http://www.w3.org/Graphics/SVG/1.1/DTD/svg11.dtd"><svg t="1565588446029" class="icon" viewBox="0 0 1260 1024" version="1.1" xmlns="http://www.w3.org/2000/svg" p-id="11605" xmlns:xlink="http://www.w3.org/1999/xlink" width="315" height="256"><defs><style type="text/css"></style></defs><path d="M1144.810315 226.865693A404.071545 404.071545 0 0 1 1260.596898 512a396.194907 396.194907 0 0 1-14.571781 107.909945 43.715343 43.715343 0 0 1-53.954972 29.931225 44.896838 44.896838 0 0 1-31.506553-53.954972 335.938624 335.938624 0 0 0 11.027293-83.886198A309.551885 309.551885 0 0 0 866.764983 199.691291H451.666144v80.735543c0 25.599074-17.722436 35.838704-39.383191 22.054587l-189.826984-118.149575a27.568234 27.568234 0 0 1 0-50.016653L412.676785 6.319821c21.266923-13.784117 39.383192-4.332151 39.383191 21.660755v80.735543H866.764983a388.318268 388.318268 0 0 1 278.832996 118.149574zM1071.557579 841.637313a27.568234 27.568234 0 0 1 0 50.016653l-190.614647 126.026213c-21.266923 13.784117-39.383192 4.332151-39.383192-21.660755v-80.735543H394.166685a388.318268 388.318268 0 0 1-278.832996-118.149574A409.585192 409.585192 0 0 1 63.347876 293.423287a43.715343 43.715343 0 0 1 61.437778-13.390285A45.684502 45.684502 0 0 1 138.17594 342.652276 317.428524 317.428524 0 0 0 89.340782 512 309.551885 309.551885 0 0 0 394.166685 824.308709h448.574551v-80.735543c0-25.599074 17.328604-35.838704 39.383192-22.054587l189.826983 120.118734z" p-id="11606"></path></svg>