<?xml version="1.0" standalone="no"?><!DOCTYPE svg PUBLIC "-//W3C//DTD SVG 1.1//EN" "http://www.w3.org/Graphics/SVG/1.1/DTD/svg11.dtd"><svg t="1565160868450" class="icon" viewBox="0 0 1024 1024" version="1.1" xmlns="http://www.w3.org/2000/svg" p-id="10340" xmlns:xlink="http://www.w3.org/1999/xlink" width="256" height="256"><defs><style type="text/css"></style></defs><path d="M902.994 232.721h-24.771a55.902 55.902 0 0 0-39.211 16.083l-75.658 74.627v-34.855c0-46.28-37.535-83.785-83.785-83.785H148.936c-46.194 0-83.785 37.565-83.785 83.785v446.848c0 46.25 37.505 83.785 83.785 83.785h530.633c46.25 0 83.785-37.535 83.785-83.785v-34.1l75.658 74.626c10.471 10.305 24.547 16.087 39.211 16.087h24.771c30.832 0 55.855-24.998 55.855-55.858V288.576c0.001-30.861-25.023-55.855-55.855-55.855zM148.936 763.354c-15.418 0-27.93-12.541-27.93-27.93V288.576c0-15.444 12.486-27.93 27.93-27.93h530.633c15.389 0 27.93 12.512 27.93 27.93v446.848c0 15.389-12.541 27.93-27.93 27.93H148.936z m754.058-27.175h-27.93l-111.71-111.712v-0.754l-27.93-27.93V428.217l139.641-139.641h27.93v447.603z m0 0" p-id="10341" fill="#ffffff"></path></svg>