<?xml version="1.0" standalone="no"?><!DOCTYPE svg PUBLIC "-//W3C//DTD SVG 1.1//EN" "http://www.w3.org/Graphics/SVG/1.1/DTD/svg11.dtd"><svg t="1565267097248" class="icon" viewBox="0 0 1024 1024" version="1.1" xmlns="http://www.w3.org/2000/svg" p-id="991" xmlns:xlink="http://www.w3.org/1999/xlink" width="256" height="256"><defs><style type="text/css"></style></defs><path d="M514.9 901c-52.4 0-103.3-10.3-151.1-30.5-46.2-19.6-87.8-47.5-123.4-83.2-35.6-35.7-63.6-77.2-83.2-123.4-20.3-47.9-30.5-98.7-30.5-151.1s10.3-103.3 30.5-151.1c19.6-46.2 47.5-87.8 83.2-123.4 35.7-35.7 77.2-63.6 123.4-83.2 47.9-20.3 98.7-30.5 151.1-30.5S618.1 134.7 666 155c46.2 19.6 87.8 47.5 123.4 83.2 35.7 35.6 63.6 77.2 83.2 123.4 20.3 47.9 30.5 98.7 30.5 151.1S892.9 616 872.6 663.8c-19.6 46.2-47.5 87.8-83.2 123.4s-77.2 63.6-123.4 83.2c-47.9 20.3-98.7 30.6-151.1 30.6z m0-736.6c-93 0-180.5 36.2-246.3 102-65.8 65.8-102 153.2-102 246.3s36.2 180.5 102 246.3c65.8 65.8 153.2 102 246.3 102s180.5-36.2 246.3-102c65.8-65.8 102-153.2 102-246.3s-36.2-180.5-102-246.3c-65.8-65.7-153.3-102-246.3-102z" fill="" p-id="992"></path><path d="M437.8 360.4V665l220.1-176.9z" fill="" p-id="993"></path></svg>