<?xml version="1.0" standalone="no"?><!DOCTYPE svg PUBLIC "-//W3C//DTD SVG 1.1//EN" "http://www.w3.org/Graphics/SVG/1.1/DTD/svg11.dtd"><svg t="1565594959280" class="icon" viewBox="0 0 1116 1024" version="1.1" xmlns="http://www.w3.org/2000/svg" p-id="17192" xmlns:xlink="http://www.w3.org/1999/xlink" width="279" height="256"><defs><style type="text/css"></style></defs><path d="M269.824 770.56H20.992c-12.288 0-20.992 13.824-20.992 26.624 0 15.872 10.752 26.624 20.992 26.624H269.824c12.288 0 20.992-13.824 20.992-26.624 0-15.872-8.704-26.624-20.992-26.624zM23.552 469.504H541.184c14.336 0 23.552-13.824 23.552-26.624 0-15.872-12.288-26.624-23.552-26.624H23.552c-14.336 0-23.552 13.824-23.552 26.624 0 15.872 9.728 26.624 23.552 26.624zM17.408 174.592H648.704c10.752 0 17.408-13.824 17.408-26.624 0-15.872-9.216-26.624-17.408-26.624H17.408c-10.752 0-17.408 13.824-17.408 26.624 0 15.872 7.168 26.624 17.408 26.624z" p-id="17193"></path><path d="M942.08 112.64c-81.92-37.376-139.776 0-139.776 0v1.536c-6.656 5.12-11.264 12.288-11.264 20.48v446.976c-72.192-45.056-187.904-45.056-293.376 6.144-129.536 64-186.368 180.736-132.608 265.216 55.808 87.04 206.336 98.816 335.36 34.816 99.328-50.176 158.208-130.56 153.6-203.776v-465.92l1.024-1.024c37.376-56.32 180.736-27.136 261.12-56.32-42.496 11.776-76.8-10.24-174.08-48.128z" p-id="17194"></path></svg>