<?xml version="1.0" standalone="no"?><!DOCTYPE svg PUBLIC "-//W3C//DTD SVG 1.1//EN" "http://www.w3.org/Graphics/SVG/1.1/DTD/svg11.dtd"><svg t="1565588434675" class="icon" viewBox="0 0 1024 1024" version="1.1" xmlns="http://www.w3.org/2000/svg" p-id="11493" xmlns:xlink="http://www.w3.org/1999/xlink" width="256" height="256"><defs><style type="text/css"></style></defs><path d="M718.2 401.4c-61.9 19-115.6 58.1-152.7 111.2-10.1 15-21.7 28.9-34.8 41.4-13 12.5-4.1 6.4-18.2 23.8-70.1 89.3-177.3 141.6-290.9 141.7H139v-82.7h82.7c94.6 0.1 183.2-46.3 237.1-124.1 13.6-12.2 25.5-26.1 35.6-41.4 10-15.3 7-9.8 17-25.4v3.1C563 382.2 636 335.1 718.2 315.6V223l165.5 124.1-165.5 124.1v-69.8z m-496.5-12.9H139v-82.8h82.7c91.7 0.1 180.1 34.5 247.8 96.4-15.9 23-35.4 43.3-57.9 59.9-52-47.1-119.6-73.3-189.9-73.5z m496.5 235.8V554l165.5 124.1-165.5 124.1v-92.6c-64.1-15.3-122.9-47.7-170-93.7 16.6-21.7 35.6-41.6 56.7-59 32 31 70.8 54.1 113.3 67.4z m0 0" p-id="11494"></path></svg>