<?xml version="1.0" standalone="no"?><!DOCTYPE svg PUBLIC "-//W3C//DTD SVG 1.1//EN" "http://www.w3.org/Graphics/SVG/1.1/DTD/svg11.dtd"><svg t="1565588451814" class="icon" viewBox="0 0 1024 1024" version="1.1" xmlns="http://www.w3.org/2000/svg" p-id="11717" xmlns:xlink="http://www.w3.org/1999/xlink" width="256" height="256"><defs><style type="text/css"></style></defs><path d="M997.970784 537.255904C997.970784 716.297771 871.695112 895.339639 639.887048 895.339639 534.175614 895.339639 318.66036 895.339639 217.859789 895.339639 213.486052 895.339639 208.984428 895.339639 205.071084 895.339639L182.818737 895.339639 245.176462 957.671787C260.215979 972.736881 260.215979 997.112152 245.176462 1012.151669 230.111368 1027.191186 205.736097 1027.191186 190.69658 1012.151669L63.602431 885.05752C63.346657 884.827324 63.295502 884.494817 63.039728 884.239043 56.00594 877.281988 51.606626 867.639304 51.606626 856.973525 51.606626 846.282167 56.00594 836.665061 63.039728 829.708006 63.295502 829.452232 63.346657 829.119726 63.602431 828.863951L190.69658 701.769803C205.736097 686.730286 230.111368 686.730286 245.176462 701.769803 260.215979 716.80932 260.215979 741.210168 245.176462 756.249685L182.818737 818.60741 205.071084 818.60741C208.779808 818.60741 213.153545 818.60741 217.859789 818.60741 277.941124 818.60741 416.775304 818.60741 588.732229 818.60741 817.317539 818.60741 921.238555 687.523186 921.238555 460.523675L923.821873 460.523675C922.363961 456.482444 921.238555 452.262171 921.238555 447.73497L921.238555 396.580151C921.238555 375.376478 938.426574 358.214036 959.604669 358.214036 980.782765 358.214036 997.970784 375.376478 997.970784 396.580151L997.970784 447.73497C997.970784 452.262171 996.845378 456.482444 995.387465 460.523675L997.970784 460.523675 997.970784 537.255904ZM489.005909 358.214036C494.300433 343.379138 508.137811 332.636626 524.788705 332.636626 545.9668 332.636626 563.154819 349.799068 563.154819 371.002741L563.154819 677.931657C563.154819 699.109752 545.9668 716.297771 524.788705 716.297771 503.61061 716.297771 486.42259 699.109752 486.42259 677.931657L486.42259 434.946265 473.633885 434.946265C452.45579 434.946265 435.267771 417.758246 435.267771 396.580151 435.267771 375.376478 452.45579 358.214036 473.633885 358.214036L489.005909 358.214036ZM960.397569 194.467459 833.30342 321.561608C818.263903 336.601125 793.888632 336.601125 778.849115 321.561608 763.784021 306.522091 763.784021 282.14682 778.849115 267.107303L841.181263 204.749578 818.928916 204.749578C815.220192 204.749578 810.846455 204.749578 806.140211 204.749578 746.058876 204.749578 607.224696 204.749578 435.267771 204.749578 206.682461 204.749578 102.761445 335.833803 102.761445 562.833313L100.178127 562.833313C101.636039 566.874544 102.761445 571.069239 102.761445 575.622018L102.761445 626.776838C102.761445 647.954933 85.573426 665.142952 64.395331 665.142952 43.217235 665.142952 26.029216 647.954933 26.029216 626.776838L26.029216 575.622018C26.029216 571.069239 27.154622 566.874544 28.612535 562.833313L26.029216 562.833313 26.029216 486.101084C26.029216 307.059217 152.330465 128.017349 384.112952 128.017349 489.824386 128.017349 705.33964 128.017349 806.140211 128.017349 810.513948 128.017349 815.015572 128.017349 818.928916 128.017349L841.181263 128.017349 778.849115 65.659624C763.784021 50.620107 763.784021 26.219258 778.849115 11.179742 793.888632-3.859775 818.263903-3.859775 833.30342 11.179742L960.397569 138.299468C960.653343 138.529664 960.704498 138.862171 960.960272 139.117945 967.99406 146.075 972.393374 155.692106 972.393374 166.383463 972.393374 177.049243 967.99406 186.691927 960.960272 193.648982 960.730075 193.904756 960.653343 194.237263 960.397569 194.467459Z" p-id="11718"></path></svg>